<?xml version="1.0" encoding="UTF-8" standalone="no"?>
<svg
   xmlns:dc="http://purl.org/dc/elements/1.1/"
   xmlns:cc="http://creativecommons.org/ns#"
   xmlns:rdf="http://www.w3.org/1999/02/22-rdf-syntax-ns#"
   xmlns:svg="http://www.w3.org/2000/svg"
   xmlns="http://www.w3.org/2000/svg"
   xmlns:sodipodi="http://sodipodi.sourceforge.net/DTD/sodipodi-0.dtd"
   xmlns:inkscape="http://www.inkscape.org/namespaces/inkscape"
   version="1.1"
   width="225"
   height="55"
   id="svg93"
   viewBox="0 0 225 55"
   sodipodi:docname="Logo-site-new_white.svg"
   inkscape:version="0.92.1 r15371">
  <metadata
     id="metadata99">
    <rdf:RDF>
      <cc:Work
         rdf:about="">
        <dc:format>image/svg+xml</dc:format>
        <dc:type
           rdf:resource="http://purl.org/dc/dcmitype/StillImage" />
        <dc:title></dc:title>
      </cc:Work>
    </rdf:RDF>
  </metadata>
  <defs
     id="defs97" />
  <sodipodi:namedview
     pagecolor="#ffffff"
     bordercolor="#666666"
     borderopacity="1"
     objecttolerance="10"
     gridtolerance="10"
     guidetolerance="10"
     inkscape:pageopacity="0"
     inkscape:pageshadow="2"
     inkscape:window-width="1280"
     inkscape:window-height="657"
     id="namedview95"
     showgrid="false"
     inkscape:zoom="1.8612278"
     inkscape:cx="222.32093"
     inkscape:cy="12.58816"
     inkscape:window-x="-8"
     inkscape:window-y="-8"
     inkscape:window-maximized="1"
     inkscape:current-layer="svg93" />
  <path
     inkscape:connector-curvature="0"
     id="path2"
     style="fill:#ffffff;fill-opacity:1;fill-rule:evenodd;stroke-width:0.2227404"
     d="M 51.400192,28.774796 C 50.473378,15.591028 44.728417,2.5510818 35.377932,3.2831474 27.234605,3.919472 24.179624,15.088765 24.179624,28.298994 c 0,13.211284 9.269682,24.394378 14.705225,24.394378 5.440856,0 13.474768,-10.28376 12.515343,-23.918576 z M 39.296206,51.050104 v 0 c -5.057606,0 -13.678129,-10.598633 -13.678129,-22.884715 0,-12.287143 2.839478,-22.6770267 10.41513,-23.268418 8.695699,-0.6802285 12.941039,11.427627 14.418892,23.820417 1.508296,12.63658 -6.097298,22.332716 -11.155893,22.332716 z" />
  <path
     inkscape:connector-curvature="0"
     id="path4"
     style="fill:#ffffff;fill-opacity:1;fill-rule:evenodd;stroke-width:0.2227404"
     d="M 43.405027,30.401106 C 42.172427,27.969695 40.605119,25.640194 39.03547,23.411233 35.450253,18.54951 30.967142,14.194092 25.5883,10.953366 22.112334,8.927297 16.845722,6.9012503 12.587752,7.7110149 8.1047951,8.7248748 6.9842791,12.87785 6.8715321,16.525093 c -0.11123,5.569461 2.9151622,11.749548 5.8284599,16.508807 3.474303,5.572162 7.732792,10.535937 13.224535,14.48603 3.584721,2.632933 8.292305,4.963795 12.998717,4.963795 12.103491,-0.202903 7.284176,-16.409911 4.481783,-22.082619 z M 42.50914,49.949822 v 0 C 39.259449,52.381231 33.656653,50.659656 30.294739,49.039074 24.691762,46.405222 20.321053,41.64432 16.734483,36.884026 13.14809,32.225166 10.45861,26.754007 9.4498071,21.082346 8.7772221,17.43629 9.0011991,12.573945 12.699992,10.447503 c 3.586552,-2.0271255 7.844361,-0.8114307 11.093034,0.708305 5.716222,2.734844 10.199336,7.494691 13.785722,12.155057 3.585376,4.86128 6.276062,10.129566 7.284169,15.801677 0.672587,3.646507 1.008793,8.204937 -2.353777,10.83728 z" />
  <path
     inkscape:connector-curvature="0"
     id="path6"
     style="fill:#ffffff;fill-opacity:1;fill-rule:evenodd;stroke-width:0.2227404"
     d="m 52.123667,20.469904 c -3.113336,-1.342536 -12.011883,0.0048 -16.975356,10.328275 -4.503571,9.367002 -5.732359,19.381445 0.629014,21.581555 7.163789,2.476936 11.436563,-3.336002 16.280483,-12.562636 6.246637,-11.893989 3.182031,-18.005244 0.06586,-19.347194 z M 51.57778,38.857192 v 0 c -4.365058,8.31436 -8.227131,13.547923 -14.759076,11.28364 -5.799347,-2.012526 -4.727715,-11.052654 -0.675404,-19.495355 4.469809,-9.305225 12.561584,-10.487269 15.40355,-9.264348 2.842317,1.226065 5.659024,6.755691 0.03093,17.476063 z" />
  <path
     inkscape:connector-curvature="0"
     id="path8"
     style="fill:#ffffff;fill-opacity:1;fill-rule:evenodd;stroke-width:0.2227404"
     d="M 44.239226,39.467663 C 41.661303,34.503887 37.179007,30.350298 32.472595,27.007697 32.36833,26.924871 32.271575,26.860565 32.178629,26.804662 27.211152,23.351287 21.703786,20.502519 15.549948,19.309528 11.627687,18.6012 5.8002441,18.094876 3.2224768,21.235199 c -2.35364625,3.139116 -0.559015,7.900471 1.0087953,10.937682 2.689981,4.964839 7.8450139,9.320258 12.5519389,12.663472 4.930386,3.647104 10.758987,6.481872 16.922645,7.698174 3.92111,0.708305 8.739764,0.60776 11.318017,-2.532396 2.465538,-3.039324 0.783668,-7.49574 -0.784647,-10.534468 z m -0.560834,9.218374 v 0 C 41.549739,51.723708 36.394684,51.622722 33.032277,51.11684 27.317562,50.203967 22.049305,47.36875 17.455806,44.126971 13.084411,41.087216 9.1628101,37.238706 6.5850521,32.78276 4.9048501,29.845032 3.7821451,26.096334 5.8002441,23.15922 7.9305551,20.018889 12.97268,20.018889 16.334764,20.525809 c 5.714541,0.912282 11.094529,3.848506 15.690391,6.988808 4.369529,3.241634 7.954446,7.090268 10.533206,11.547721 1.680865,2.936223 3.138105,6.685361 1.120031,9.623699 z" />
  <path
     inkscape:connector-curvature="0"
     id="path10"
     style="fill:#ffffff;fill-opacity:1;fill-rule:evenodd;stroke-width:0.28408965"
     d="m 168.15043,22.623118 h -8.6229 l 0.004,-14.835186 c 0,-0.51119 -0.38114,-0.92551 -0.85143,-0.92551 h -1.71784 c -0.46971,0 -0.85086,0.41432 -0.85086,0.92551 v 17.662847 c 0,0.506949 0.3779,0.91745 0.84146,0.91745 h 11.19697 c 0.45821,0 0.83016,-0.417071 0.83016,-0.93144 v -1.881582 c 0,-0.515029 -0.37195,-0.932089 -0.83016,-0.932089 z" />
  <path
     inkscape:connector-curvature="0"
     id="path12"
     style="fill:#ffffff;fill-opacity:1;fill-rule:evenodd;stroke-width:0.28408965"
     d="m 116.02428,10.389131 c 1.13672,0 2.0984,0.210359 2.89097,0.621059 0.44978,0.248271 0.85872,0.543411 1.22204,0.937181 l 0.69345,0.76628 c 0.32441,0.357909 0.85278,0.353469 1.18235,-0.011 l 1.20346,-1.33029 c 0.32822,-0.36363 0.34011,-0.899 0.0171,-1.25862 0,0 -1.32363,-2.138739 -4.26677,-3.062769 v -0.002 c -0.0119,-0.004 -0.0238,-0.007 -0.0351,-0.01 -0.0322,-0.009 -0.0632,-0.0218 -0.097,-0.0323 v 0.008 c -0.86332,-0.243181 -1.80315,-0.37105 -2.82635,-0.37105 -2.7654,0 -4.94242,0.89627 -6.53236,2.6881288 -1.58976,1.7927302 -2.38503,4.2206992 -2.38503,7.2834782 0,2.813879 0.84741,5.173149 2.54034,7.079718 1.69289,1.906591 3.81832,2.860531 6.37705,2.860531 0.90569,0 1.74715,-0.10368 2.52784,-0.299399 v 0.006 c 0.0357,-0.008 0.07,-0.0189 0.10564,-0.0292 0.0402,-0.0101 0.0799,-0.0227 0.12023,-0.0328 0.54026,-0.14757 1.02435,-0.34032 1.45709,-0.55872 0.0191,-0.0101 0.0397,-0.0211 0.0594,-0.0314 0.23637,-0.122141 0.4584,-0.24998 0.66104,-0.382721 0.0106,-0.007 0.0206,-0.0147 0.0319,-0.0206 1.33094,-0.87735 1.96303,-1.881751 1.96303,-1.881751 0.32229,-0.35792 0.31096,-0.89478 -0.0177,-1.25694 l -1.20345,-1.331793 c -0.32841,-0.36361 -0.85814,-0.36808 -1.18235,-0.0101 l -0.69158,0.76541 c -0.1037,0.111129 -0.21011,0.214159 -0.31979,0.3113 -0.8704,0.671259 -2.03417,1.006499 -3.49528,1.006499 -1.59646,0 -2.91475,-0.58204 -3.95504,-1.750749 -1.04296,-1.16807 -1.56407,-2.649529 -1.56407,-4.442919 0,-4.150489 1.8394,-6.226498 5.51911,-6.226498 z" />
  <path
     inkscape:connector-curvature="0"
     id="path14"
     style="fill:#ffffff;fill-opacity:1;fill-rule:evenodd;stroke-width:0.28408965"
     d="m 139.25216,6.862422 h -0.77475 -12.74376 -0.77666 c -0.45649,0 -0.82766,0.41643 -0.82766,0.9321 v 1.8809088 c 0,0.5158902 0.37117,0.9321002 0.82766,0.9321002 h 0.77666 4.65981 v 13.884008 c 0,0.0139 0.004,0.02571 0.004,0.0403 v 0.910059 c 0,0.510561 0.38038,0.926351 0.8499,0.926351 h 1.71804 c 0.47028,0 0.85083,-0.41579 0.85083,-0.926351 v -4.44926 c 0,-0.0249 -0.006,-0.0496 -0.007,-0.0739 V 10.607411 h 4.66787 0.77474 c 0.45707,0 0.82882,-0.41621 0.82882,-0.9321002 V 7.794392 c 0,-0.51566 -0.37175,-0.93209 -0.82882,-0.93209 z" />
  <path
     inkscape:connector-curvature="0"
     id="path16"
     style="fill:#ffffff;fill-opacity:1;fill-rule:evenodd;stroke-width:0.28408965"
     d="M 154.23487,24.781609 149.1153,8.7633018 C 148.64501,7.350532 147.62985,6.644032 146.0671,6.644032 c -1.54221,0 -2.54873,0.69843 -3.01902,2.0920988 l -5.19224,16.1565972 c -0.15317,0.478341 0.0792,1.00439 0.51843,1.174411 l 1.60567,0.626139 c 0.43866,0.17088 0.91737,-0.0783 1.06885,-0.55593 l 1.40879,-4.35577 h 7.17556 l 1.35605,4.201601 c 0.15128,0.47772 0.61831,0.73131 1.04164,0.566119 l 1.7134,-0.604049 c 0.42334,-0.16498 0.64188,-0.68595 0.49064,-1.16364 z M 143.6194,18.098618 v 0 l 2.40075,-7.525217 2.43468,7.525217 z" />
  <path
     inkscape:connector-curvature="0"
     id="path18"
     style="fill:#ffffff;fill-opacity:1;fill-rule:evenodd;stroke-width:0.28408965"
     d="M 106.89084,24.781609 101.7707,8.7633018 C 101.30042,7.350532 100.28525,6.644032 98.723863,6.644032 c -1.54222,0 -2.54895,0.69843 -3.02059,2.0920988 L 90.511248,24.892728 c -0.15203,0.478341 0.0792,1.00439 0.51843,1.174411 l 1.60489,0.626139 c 0.43925,0.17088 0.918155,-0.0783 1.069995,-0.55593 l 1.40955,-4.35577 h 7.176337 l 1.35415,4.201601 c 0.15241,0.47772 0.61886,0.73131 1.04277,0.566119 l 1.71264,-0.604049 c 0.42275,-0.16498 0.64286,-0.68595 0.49083,-1.16364 z M 96.275943,18.098618 v 0 l 2.40093,-7.525217 2.433337,7.525217 z" />
  <path
     inkscape:connector-curvature="0"
     id="path20"
     style="fill:#ffffff;fill-opacity:1;fill-rule:evenodd;stroke-width:0.28408965"
     d="m 72.712533,6.862422 h -10.5006 c -0.470285,0 -0.852023,0.41643 -0.852023,0.9321 l 0.01917,17.648186 c 0,0.510581 0.381138,0.925521 0.850077,0.925521 h 1.71727 c 0.469524,0 0.850106,-0.41494 0.850106,-0.925521 l -0.0028,-7.906629 h 5.488032 c 0.457275,0 0.828447,-0.41706 0.828447,-0.93209 V 14.72307 c 0,-0.51503 -0.371172,-0.9321 -0.828447,-0.9321 h -5.488034 v -3.183439 h 7.918691 c 0.457839,0 0.829611,-0.41707 0.829611,-0.9312402 V 7.793892 c 0,-0.51419 -0.371772,-0.93147 -0.829611,-0.93147 z" />
  <path
     inkscape:connector-curvature="0"
     id="path22"
     style="fill:#ffffff;fill-opacity:1;fill-rule:evenodd;stroke-width:0.28408965"
     d="m 85.447688,19.333049 c 1.31176,-0.374671 2.34207,-1.15344 3.0919,-2.337449 0.71129,-1.122041 1.06731,-2.451481 1.06731,-3.989139 0,-1.76473 -0.52569,-3.2659202 -1.58054,-4.5024792 C 86.972078,7.268662 85.627338,6.649132 83.990598,6.649132 h -8.243667 c -0.464915,0 -0.841465,0.4105 -0.841465,0.91618 v 17.672806 c 0,0.506961 0.37655,0.917451 0.841465,0.917451 h 1.701536 c 0.464351,0 0.841466,-0.41049 0.841466,-0.917451 l 0.02834,-8.156429 8.383075,9.18349 c 0.31498,0.368109 0.84469,0.379759 1.18292,0.02571 l 1.23449,-1.29384 c 0.33762,-0.35492 0.35526,-0.940129 0.0397,-1.306741 z m -7.129393,-8.938798 v 0 h 5.239783 c 0.69096,0 1.30254,0.24996 1.83613,0.74889 0.53183,0.49953 0.79715,1.12416 0.79715,1.873479 0,1.16513 -0.25096,1.975929 -0.75615,2.434759 -0.44728,0.37318 -1.19481,0.561041 -2.24044,0.561041 h -4.876473 z" />
  <path
     inkscape:connector-curvature="0"
     id="path24"
     style="fill:#ffffff;fill-opacity:1;fill-rule:evenodd;stroke-width:0.28408965"
     d="m 192.65961,44.242657 c 1.31232,-0.374 2.34339,-1.15261 3.09227,-2.33828 0.71074,-1.1197 1.06751,-2.45065 1.06751,-3.98744 0,-1.76642 -0.52706,-3.26676 -1.57999,-4.50335 -1.05466,-1.23526 -2.39957,-1.854 -4.03556,-1.854 h -8.24365 c -0.46569,0 -0.8428,0.4105 -0.8428,0.91683 v 17.67131 c 0,0.50696 0.37711,0.91766 0.8428,0.91766 h 1.69941 c 0.46551,0 0.84417,-0.4107 0.84417,-0.91766 l 0.0276,-8.15704 8.38247,9.18497 c 0.31442,0.36808 0.84415,0.3791 1.18236,0.0249 l 1.23506,-1.29509 c 0.33744,-0.35367 0.35545,-0.93868 0.0403,-1.30611 z m -7.12823,-8.93732 v 0 h 5.23842 c 0.69153,0 1.30254,0.24915 1.83632,0.74804 0.53085,0.49892 0.79776,1.12419 0.79776,1.87373 0,1.16447 -0.25097,1.97591 -0.75616,2.43305 -0.44866,0.37487 -1.19481,0.56252 -2.24123,0.56252 h -4.87511 z" />
  <path
     inkscape:connector-curvature="0"
     id="path26"
     style="fill:#ffffff;fill-opacity:1;fill-rule:evenodd;stroke-width:0.28408965"
     d="m 90.784448,31.760577 h -1.70324 c -0.46378,0 -0.84147,0.41117 -0.84147,0.91729 v 11.86799 l -9.00731,-12.47716 c -0.163733,-0.20462 -0.39224,-0.29875 -0.62289,-0.29792 -0.02897,-0.002 -0.05815,-0.0101 -0.08704,-0.0101 h -1.703645 c -0.462243,0 -0.840717,0.41116 -0.840717,0.91728 v 17.57227 c 0,0.50695 0.378474,0.91808 0.840717,0.91808 h 1.703645 c 0.465486,0 0.842029,-0.41113 0.842029,-0.91808 v -12.00161 l 8.982761,12.44348 c 0.13669,0.26651 0.38517,0.4478 0.67907,0.46901 0.008,4.4e-4 0.0165,0.003 0.0257,0.004 0.01,0 0.0192,0.004 0.0292,0.004 h 1.70325 c 0.46378,0 0.84224,-0.41112 0.84224,-0.9181 v -17.57219 c 0,-0.50613 -0.37846,-0.91728 -0.84224,-0.91728 z" />
  <path
     inkscape:connector-curvature="0"
     id="path28"
     style="fill:#ffffff;fill-opacity:1;fill-rule:evenodd;stroke-width:0.28408965"
     d="m 160.87362,31.756147 h -1.71861 c -0.46969,0 -0.85008,0.41493 -0.85008,0.92552 l 0.005,6.03356 h -8.57918 l 0.0145,-6.03356 c 0,-0.51059 -0.38172,-0.92552 -0.85144,-0.92552 h -1.71858 c -0.46953,0 -0.85068,0.41493 -0.85068,0.92552 l -0.009,17.65096 c 0,0.5127 0.38247,0.92847 0.85275,0.92847 h 1.72321 c 0.47029,0 0.85336,-0.41577 0.85336,-0.92847 l -0.0145,-7.8723 h 8.57918 l -0.0144,7.8723 c 0,0.5127 0.38173,0.92847 0.85259,0.92847 h 1.72321 c 0.47048,0 0.85219,-0.41577 0.85219,-0.92847 v -17.65096 c 0,-0.51059 -0.38054,-0.92552 -0.85009,-0.92552 z" />
  <path
     inkscape:connector-curvature="0"
     id="path30"
     style="fill:#ffffff;fill-opacity:1;fill-rule:evenodd;stroke-width:0.28408965"
     d="m 201.43432,31.756147 h -1.70151 c -0.46627,0 -0.84339,0.41114 -0.84339,0.91748 v 17.67151 c 0,0.50547 0.37712,0.91596 0.84339,0.91596 h 1.70151 c 0.46495,0 0.84281,-0.41049 0.84281,-0.91596 v -17.67151 c 0,-0.50634 -0.37786,-0.91748 -0.84281,-0.91748 z" />
  <path
     inkscape:connector-curvature="0"
     id="path32"
     style="fill:#ffffff;fill-opacity:1;fill-rule:evenodd;stroke-width:0.28408965"
     d="M 72.73439,31.756147 H 62.211933 c -0.470285,0 -0.852023,0.41706 -0.852023,0.93209 v 17.64206 c 0,0.51436 0.381738,0.9308 0.852023,0.9308 H 72.73439 c 0.458424,0 0.830364,-0.41789 0.830364,-0.9308 v -1.88307 c 0,-0.51416 -0.37194,-0.93123 -0.830364,-0.93123 l -7.95184,4.4e-4 -0.0073,-5.3368 5.509136,-0.0183 c 0.456492,0 0.828227,-0.41495 0.828227,-0.92615 v -1.87584 c 0,-0.50991 -0.371735,-0.92486 -0.828227,-0.92486 h -5.509132 l 0.0073,-2.93347 7.95184,6.1e-4 c 0.458424,0 0.830364,-0.41773 0.830364,-0.9321 v -1.88241 c 0,-0.51418 -0.37194,-0.93125 -0.830364,-0.93125 z" />
  <path
     inkscape:connector-curvature="0"
     id="path34"
     style="fill:#ffffff;fill-opacity:1;fill-rule:evenodd;stroke-width:0.28408965"
     d="m 124.86382,31.756147 h -10.52383 c -0.4695,0 -0.85068,0.41706 -0.85068,0.93209 v 17.64206 c 0,0.51436 0.38118,0.9308 0.85068,0.9308 h 10.52383 c 0.45762,0 0.82957,-0.41789 0.82957,-0.9308 v -1.88307 c 0,-0.51416 -0.37195,-0.93123 -0.82957,-0.93123 l -7.95111,4.4e-4 -0.009,-5.3368 5.50989,-0.0183 c 0.45708,0 0.82825,-0.41495 0.82825,-0.92615 v -1.87584 c 0,-0.50991 -0.37117,-0.92486 -0.82825,-0.92486 h -5.50989 l 0.009,-2.93347 7.95111,6.1e-4 c 0.45762,0 0.82957,-0.41773 0.82957,-0.9321 v -1.88241 c 0,-0.51418 -0.37195,-0.93125 -0.82957,-0.93125 z" />
  <path
     inkscape:connector-curvature="0"
     id="path36"
     style="fill:#ffffff;fill-opacity:1;fill-rule:evenodd;stroke-width:0.28408965"
     d="m 220.40121,49.594757 -5.12012,-16.01831 c -0.47089,-1.41277 -1.48759,-2.11903 -3.04764,-2.11903 -1.5422,0 -2.54951,0.69756 -3.0198,2.09211 l -5.19356,16.15716 c -0.15184,0.47835 0.0807,1.00358 0.51859,1.17446 l 1.6057,0.62464 c 0.43846,0.17089 0.91737,-0.0774 1.06922,-0.55596 l 1.4103,-4.35574 h 7.17502 l 1.35396,4.20245 c 0.15316,0.47688 0.61962,0.7311 1.04352,0.56528 l 1.71343,-0.60344 c 0.42274,-0.16431 0.64263,-0.6859 0.49138,-1.16362 z m -10.61624,-6.68301 v 0 l 2.40094,-7.52456 2.43468,7.52456 z" />
  <path
     inkscape:connector-curvature="0"
     id="path38"
     style="fill:#ffffff;fill-opacity:1;fill-rule:evenodd;stroke-width:0.28408965"
     d="m 110.34527,40.744567 h -7.38243 c -0.45841,0 -0.83017,0.41707 -0.83017,0.93126 v 1.88241 c 0,0.51292 0.37176,0.93123 0.83017,0.93123 h 4.65654 c -0.28068,0.85259 -0.83476,1.5809 -1.65975,2.18433 -0.90109,0.68657 -1.93254,1.02902 -3.09651,1.02902 -1.61217,0 -2.93584,-0.58712 -3.968227,-1.76328 -1.03111,-1.17527 -1.54625,-2.6472 -1.54625,-4.41555 0,-2.03886 0.463,-3.62975 1.39362,-4.77449 0.928707,-1.14393 2.303167,-1.71723 4.124137,-1.71723 1.64802,0 2.96575,0.547 3.96117,1.62371 l 0.69269,0.76627 c 0.32304,0.35792 0.85335,0.35284 1.18101,-0.009 l 1.20421,-1.3324 c 0.32822,-0.36322 0.34068,-0.90009 0.017,-1.25797 l -0.86907,-0.962 v 7.9e-4 c -1.61755,-1.70343 -3.67971,-2.573378 -6.20164,-2.573378 -2.76674,0 -4.945077,0.940998 -6.534267,2.824038 -1.58976,1.88473 -2.38444,4.35299 -2.38444,7.41218 0,2.788 0.84625,5.13942 2.53974,7.05321 1.69349,1.91465 3.818917,2.87006 6.378967,2.87006 2.20022,0 4.13814,-0.77858 5.81188,-2.33893 1.65456,-1.5406 2.48682,-3.37762 2.50656,-5.50623 0.001,-0.0161 0.005,-0.0287 0.005,-0.0439 v -0.0364 -1.84594 c 0,-0.51419 -0.37118,-0.93126 -0.83036,-0.93126 z" />
  <path
     inkscape:connector-curvature="0"
     id="path40"
     style="fill:#ffffff;fill-opacity:1;fill-rule:evenodd;stroke-width:0.28408965"
     d="m 142.91922,31.760577 h -1.70287 c -0.46301,0 -0.84127,0.41117 -0.84127,0.91729 v 11.86799 l -9.00731,-12.47716 c -0.16314,-0.20462 -0.39168,-0.29875 -0.62289,-0.29792 -0.0292,-0.002 -0.0575,-0.0101 -0.0878,-0.0101 h -1.70154 c -0.46359,0 -0.84282,0.41116 -0.84282,0.91728 v 17.57227 c 0,0.50695 0.37923,0.91808 0.84282,0.91808 h 1.70155 c 0.46566,0 0.84338,-0.41113 0.84338,-0.91808 v -12.00161 l 8.9835,12.44348 c 0.13612,0.26651 0.38498,0.4478 0.67833,0.46901 0.009,4.4e-4 0.0151,0.003 0.0245,0.004 0.0105,0 0.0204,0.004 0.0295,0.004 h 1.70287 c 0.4657,0 0.84206,-0.41112 0.84206,-0.9181 v -17.57219 c 0,-0.50613 -0.37636,-0.91728 -0.84206,-0.91728 z" />
  <path
     inkscape:connector-curvature="0"
     id="path42"
     style="fill:#ffffff;fill-opacity:1;fill-rule:evenodd;stroke-width:0.28408965"
     d="m 180.34588,49.594757 -5.12032,-16.01831 c -0.46954,-1.41277 -1.48547,-2.11903 -3.04611,-2.11903 -1.54353,0 -2.5495,0.69756 -3.01981,2.09211 l -5.19297,16.15716 c -0.15185,0.47835 0.0793,1.00358 0.51861,1.17446 l 1.60488,0.62464 c 0.43926,0.17089 0.91816,-0.0774 1.06946,-0.55596 l 1.40875,-4.35574 h 7.17713 l 1.3547,4.20245 c 0.15184,0.47688 0.61755,0.7311 1.04145,0.56528 l 1.71341,-0.60344 c 0.42333,-0.16431 0.64342,-0.6859 0.49082,-1.16362 z m -10.61565,-6.68301 v 0 l 2.40168,-7.52456 2.43393,7.52456 z" />
</svg>
